<?xml version="1.0" standalone="no"?>
<!DOCTYPE svg PUBLIC "-//W3C//DTD SVG 20010904//EN"
 "http://www.w3.org/TR/2001/REC-SVG-20010904/DTD/svg10.dtd">
<svg version="1.0" xmlns="http://www.w3.org/2000/svg"
 width="512.000000pt" height="512.000000pt" viewBox="0 0 512.000000 512.000000"
 preserveAspectRatio="xMidYMid meet">

<g transform="translate(0.000000,512.000000) scale(0.100000,-0.100000)"
fill="#000000" stroke="none">
<path d="M1745 5109 c-635 -88 -1134 -554 -1267 -1186 -22 -107 -23 -118 -26
-983 -2 -594 0 -915 8 -1000 92 -1026 886 -1829 1909 -1930 133 -13 1203 -13
1296 0 304 44 569 194 759 431 70 88 161 257 195 359 23 72 52 211 45 221 -2
3 -27 9 -56 13 -193 25 -440 126 -608 249 -290 212 -481 507 -561 865 -21 93
-22 126 -29 897 -7 768 -8 804 -28 893 -70 302 -198 538 -407 747 -209 209
-467 348 -755 406 -112 23 -370 33 -475 18z m-375 -1140 c203 -32 382 -207
420 -408 16 -84 12 -375 -5 -450 -41 -174 -175 -319 -344 -372 -76 -24 -210
-29 -281 -10 -123 33 -252 130 -313 234 -59 101 -69 147 -75 339 -2 112 0 202
8 245 35 205 197 373 400 417 81 18 108 19 190 5z m1367 -20 c169 -56 297
-196 338 -371 20 -87 20 -380 0 -467 -41 -174 -175 -319 -344 -372 -76 -24
-210 -29 -281 -10 -190 51 -345 217 -379 405 -14 77 -14 345 0 422 54 302 373
490 666 393z"/>
<path d="M1219 3665 c-56 -18 -123 -86 -138 -141 -14 -51 -14 -308 0 -359 16
-59 92 -129 157 -145 98 -23 200 29 243 125 16 33 19 67 19 201 0 158 -1 163
-28 215 -49 94 -152 136 -253 104z"/>
<path d="M2509 3665 c-56 -18 -123 -86 -138 -141 -14 -51 -14 -308 0 -359 16
-59 92 -129 157 -145 98 -23 200 29 243 125 16 33 19 67 19 201 0 158 -1 163
-28 215 -48 93 -153 136 -253 104z"/>
</g>
</svg>
